<svg version="1.1" xmlns="http://www.w3.org/2000/svg" viewBox="0 0 778.96484375 742.8594361905668" width="778.96484375" height="742.8594361905668">
  <!-- svg-source:excalidraw -->
  
  <defs>
    <style>
      @font-face {
        font-family: "Virgil";
        src: url("https://excalidraw.com/Virgil.woff2");
      }
      @font-face {
        font-family: "Cascadia";
        src: url("https://excalidraw.com/Cascadia.woff2");
      }
    </style>
  </defs>
  <rect x="0" y="0" width="778.96484375" height="742.8594361905668" fill="#ffffff"></rect><g stroke-linecap="round" transform="translate(10 10) rotate(0 101.20173811844816 34.48805298149064)"><path d="M0.02 -0.6 C54.6 0.82, 108.21 -0.48, 200.88 1.52 M0.82 0.75 C55.02 0.02, 110.36 0.03, 203.14 0.48 M202.29 -0.01 C200.37 19.61, 202.91 35.3, 202.5 69.92 M202.82 -0.29 C202.68 24.97, 202.7 49.14, 201.89 68.84 M204.18 68.57 C137.73 67.11, 72.25 70.01, -0.94 68.91 M202.11 68.58 C124.62 69.79, 45.27 68.85, 0.15 68.41 M-1.08 68.85 C0.62 41.83, -1.17 16.99, -0.35 1.12 M0.05 69.57 C0.02 55.55, -0.23 40.05, 0.27 0.87" stroke="#000000" stroke-width="1" fill="none"></path></g><g transform="translate(15 18.48805298149064) rotate(0 96.20173811844816 26)"><text x="96.20173811844816" y="18" font-family="Virgil, Segoe UI Emoji" font-size="20.101855726242913px" fill="#000000" text-anchor="middle" style="white-space: pre;" direction="ltr">From</text><text x="96.20173811844816" y="44" font-family="Virgil, Segoe UI Emoji" font-size="20.101855726242913px" fill="#000000" text-anchor="middle" style="white-space: pre;" direction="ltr"></text></g><g transform="translate(84.46791566134965 49.58312137850053) rotate(0 25.84648707341664 8.736840700873223)"><text x="0" y="13.473681401746447" font-family="Cascadia, Segoe UI Emoji" font-size="14.561401168122062px" fill="#000000" text-anchor="start" style="white-space: pre;" direction="ltr">person</text></g><g stroke-linecap="round" transform="translate(546.6326039694418 143.96187755612272) rotate(0 90.40319424260827 32.59892134398888)"><path d="M1.67 0.38 C41.62 1.05, 83.25 2.33, 182.49 -0.52 M-0.05 -0.61 C56.62 0.17, 112.98 0.27, 180.65 0.19 M182.54 1.69 C179.09 15.21, 180.73 33.4, 181.26 65.89 M181.71 -0.3 C181.88 18.96, 181.08 38.49, 180.55 64.39 M180.01 64.59 C135.44 64.46, 88.69 63.96, 0.18 65.35 M181.6 65.23 C139.67 64.55, 100.32 63.55, 0.1 64.51 M-1.99 64.95 C-0.58 48.86, -0.53 30.06, -1.5 -0.77 M-0.07 65 C0.06 48.71, 0 33.77, 0.5 0.27" stroke="#000000" stroke-width="1" fill="none"></path></g><g transform="translate(551.6326039694418 152.5607989001116) rotate(0 85.40319424260827 24)"><text x="85.40319424260824" y="17" font-family="Virgil, Segoe UI Emoji" font-size="18.46555551191531px" fill="#000000" text-anchor="middle" style="white-space: pre;" direction="ltr">Where</text><text x="85.40319424260824" y="41" font-family="Virgil, Segoe UI Emoji" font-size="18.46555551191531px" fill="#000000" text-anchor="middle" style="white-space: pre;" direction="ltr"></text></g><g stroke-linecap="round" transform="translate(250.86605997382162 394.5119286785804) rotate(0 93.61717176099364 31.90334513713151)"><path d="M-1.56 1.24 C52.5 -2.84, 108.05 -1.16, 188.51 0.7 M-0.58 0.25 C74.32 0.24, 149.79 0.01, 187.99 -0.1 M185.51 0.77 C187.74 21.85, 186 39.68, 187.45 65.39 M187.28 0.23 C187.67 17.44, 186.44 36.48, 187.17 63.06 M186.25 62.84 C147.6 63.22, 106 62.38, 1.98 62.29 M187.86 63.73 C141.56 62.88, 97.94 64.55, -0.75 64.04 M1.1 64.78 C-1.12 40.84, -1.66 14.07, 1.58 1.01 M-0.4 64.2 C0.23 43.25, -1.52 21.66, -0.29 -0.32" stroke="#000000" stroke-width="1" fill="none"></path></g><g transform="translate(255.86605997382162 402.4152738157119) rotate(0 88.61717176099364 24)"><text x="88.61717176099367" y="17" font-family="Virgil, Segoe UI Emoji" font-size="18.51702096498377px" fill="#000000" text-anchor="middle" style="white-space: pre;" direction="ltr">Join</text><text x="88.61717176099367" y="41" font-family="Virgil, Segoe UI Emoji" font-size="18.51702096498377px" fill="#000000" text-anchor="middle" style="white-space: pre;" direction="ltr"></text></g><g stroke-linecap="round" transform="translate(244.23046875 637.509765625) rotate(0 97.2265625 47.67483528278342)"><path d="M0.06 1.09 C64.74 -1.68, 126.91 -2.47, 193.05 -1.72 M-0.46 -0.7 C65.92 -0.48, 131.42 -1.15, 193.58 0.05 M192.72 1.58 C194.67 29.34, 193.07 59.72, 192.67 94.36 M193.79 0.12 C195.6 23.25, 194 47.18, 194.41 95.98 M195.39 96.98 C136.02 94.16, 82.42 92.81, 1.21 96.45 M193.48 95.44 C127.49 97.79, 59.18 98.28, 0.41 94.95 M-1.76 93.92 C-1.4 62.36, -0.28 31.39, -0.12 0.45 M0.67 95.56 C-1.67 60.62, -1.16 25.13, -0.42 0.55" stroke="#000000" stroke-width="1" fill="none"></path></g><g transform="translate(249.23046875 649.1846009077834) rotate(0 92.2265625 36)"><text x="92.22656249999997" y="17" font-family="Virgil, Segoe UI Emoji" font-size="18.885128738197594px" fill="#000000" text-anchor="middle" style="white-space: pre;" direction="ltr">Select</text><text x="92.22656249999997" y="41" font-family="Virgil, Segoe UI Emoji" font-size="18.885128738197594px" fill="#000000" text-anchor="middle" style="white-space: pre;" direction="ltr"></text><text x="92.22656249999997" y="65" font-family="Virgil, Segoe UI Emoji" font-size="18.885128738197594px" fill="#000000" text-anchor="middle" style="white-space: pre;" direction="ltr"></text></g><g stroke-linecap="round" transform="translate(431.9843830273444 284.2658405206614) rotate(0 82.35948823967016 28.066893382935035)"><path d="M0.93 1.63 C46.71 1.88, 98.27 0.53, 165.92 1.1 M-0.97 0.09 C58.19 -1.13, 115.04 -0.64, 165.13 -0.4 M162.95 -1.43 C164.63 18.41, 165.74 38.84, 164.6 56.58 M165.39 0.21 C164.13 20.48, 164.64 40.21, 164.3 56.68 M164.34 57.33 C98.78 58.57, 35.97 56.65, 1.38 57.06 M164.52 56.76 C114.53 57, 64.96 56.68, 0.3 56.1 M1.34 54.38 C0.97 43.53, -1.72 31.55, -0.89 -1.15 M-0.32 56.52 C0.19 33.12, -0.71 11.19, -0.63 0.97" stroke="#000000" stroke-width="1" fill="none"></path></g><g transform="translate(436.9843830273444 291.3327339035965) rotate(0 77.35948823967016 21)"><text x="77.35948823967016" y="15" font-family="Virgil, Segoe UI Emoji" font-size="16.16466918440864px" fill="#000000" text-anchor="middle" style="white-space: pre;" direction="ltr">As</text><text x="77.35948823967016" y="36" font-family="Virgil, Segoe UI Emoji" font-size="16.16466918440864px" fill="#000000" text-anchor="middle" style="white-space: pre;" direction="ltr"></text></g><g stroke-linecap="round" transform="translate(221.95077695672353 528.0234287961945) rotate(0 118.71738986122966 30.155486729456754)"><path d="M1.63 -0.2 C51.5 0.45, 104.63 0.34, 237.88 -0.08 M-0.22 0.11 C65.63 -0.62, 131.2 -0.99, 237.45 -0.79 M235.66 0.56 C237.66 14.82, 239.54 34.79, 237.08 58.36 M238.21 -0.11 C236.96 17.15, 238.45 33.9, 236.56 60.6 M237.55 58.86 C171.98 57.66, 104.88 59.64, 0.23 61.89 M238.17 60.63 C156.37 60.14, 75.62 60.71, 0.44 60.3 M-1.17 61.52 C-0.18 45.69, -1.64 27.53, -0.25 -1.67 M-0.41 59.41 C-0.88 46.71, 0.24 33.16, 0.82 0.24" stroke="#000000" stroke-width="1" fill="none"></path></g><g transform="translate(226.95077695672353 536.1789155256512) rotate(0 113.71738986122966 22)"><text x="113.71738986122969" y="16" font-family="Virgil, Segoe UI Emoji" font-size="17.49498305557379px" fill="#000000" text-anchor="middle" style="white-space: pre;" direction="ltr">Where</text><text x="113.71738986122969" y="38" font-family="Virgil, Segoe UI Emoji" font-size="17.49498305557379px" fill="#000000" text-anchor="middle" style="white-space: pre;" direction="ltr"></text></g><g stroke-linecap="round" transform="translate(578.2746857971208 10.096384276723654) rotate(0 95.3450789764396 32.492190316091325)"><path d="M-1.47 1.1 C40.95 3.09, 82.16 -0.5, 190.69 1.75 M-0.27 0.48 C65.07 0.38, 128.78 0.75, 190.39 -0.59 M189.26 -0.22 C190.45 21.76, 189.09 48.1, 192.09 64.16 M191.3 -0.65 C191.18 13.91, 190.72 27.98, 191.24 65.36 M191.37 66.36 C120.42 63.71, 55.29 64.77, -0.87 64.92 M189.93 64.51 C120.45 64.41, 48.55 63.4, 0.2 64.58 M-0.62 65.82 C-1.53 40.21, 0.5 14.19, 1.89 1.55 M0.49 65.2 C-0.13 39.79, 0.11 15.93, 0.54 0.83" stroke="#000000" stroke-width="1" fill="none"></path></g><g transform="translate(583.2746857971208 18.58857459281498) rotate(0 90.3450789764396 24)"><text x="90.3450789764396" y="17" font-family="Virgil, Segoe UI Emoji" font-size="18.878076204032148px" fill="#000000" text-anchor="middle" style="white-space: pre;" direction="ltr">From</text><text x="90.3450789764396" y="41" font-family="Virgil, Segoe UI Emoji" font-size="18.878076204032148px" fill="#000000" text-anchor="middle" style="white-space: pre;" direction="ltr"></text></g><g transform="translate(585.5459909893543 182.9815996529091) rotate(0 51.41891717144631 8.065712497481783)"><text x="0" y="13.13142499496356" font-family="Cascadia, Segoe UI Emoji" font-size="13.442854162469626px" fill="#000000" text-anchor="start" style="white-space: pre;" direction="ltr">30 &lt; age &lt; 40</text></g><g transform="translate(225.59869808986798 568.7816937749747) rotate(0 116.49540662853298 6.348523521990899)"><text x="0" y="9.697047043981787" font-family="Cascadia, Segoe UI Emoji" font-size="10.157637635185448px" fill="#000000" text-anchor="start" style="white-space: pre;" direction="ltr">address_street_name LIKE 'Franklin Ave'</text></g><g transform="translate(624.0769784011916 51.666506460288545) rotate(0 60.705320067733055 8.231229839692617)"><text x="0" y="13.46245967938523" font-family="Cascadia, Segoe UI Emoji" font-size="13.718716399487699px" fill="#000000" text-anchor="start" style="white-space: pre;" direction="ltr">drivers_license</text></g><g transform="translate(493.6434558153828 320.69136694156407) rotate(0 24.67437484125702 7.177999953820233)"><text x="0" y="11.355999907640443" font-family="Cascadia, Segoe UI Emoji" font-size="11.850286077650365px" fill="#000000" text-anchor="start" style="white-space: pre;" direction="ltr">license</text></g><g transform="translate(254.1914900858368 436.87301487208254) rotate(0 91.25990484614852 8.08205799375483)"><text x="0" y="13.164115987509685" font-family="Cascadia, Segoe UI Emoji" font-size="13.470096656258075px" fill="#000000" text-anchor="start" style="white-space: pre;" direction="ltr">license_id = license.id</text></g><g stroke-linecap="round"><g transform="translate(106.96914881922504 82.22158842793245) rotate(0 89.66629036265738 154.79635667902542)"><path d="M-0.2 0.76 C29.88 52.41, 150.87 257.95, 181.1 309.47 M-1.77 0.12 C28.15 51.41, 150.04 256.17, 180.45 307.47" stroke="#000000" stroke-width="1" fill="none"></path></g><g transform="translate(106.96914881922504 82.22158842793245) rotate(0 89.66629036265738 154.79635667902542)"><path d="M158.51 289.43 C165.7 296.23, 174.57 301.19, 182.36 307.42 M157.66 288.67 C165.53 295.2, 175.14 302.84, 179.69 308.08" stroke="#000000" stroke-width="1" fill="none"></path></g><g transform="translate(106.96914881922504 82.22158842793245) rotate(0 89.66629036265738 154.79635667902542)"><path d="M176.15 278.95 C177.13 289.39, 179.81 298.02, 182.36 307.42 M175.3 278.19 C176.38 288.68, 179.13 300.39, 179.69 308.08" stroke="#000000" stroke-width="1" fill="none"></path></g></g><g stroke-linecap="round"><g transform="translate(685.6598364016418 70.34223081874478) rotate(0 -14.666337405827903 36.9841305656524)"><path d="M-0.94 0.69 C-5.82 12.82, -25.44 60.69, -30.1 72.51 M0.77 0 C-3.66 12.36, -22.75 61.91, -27.79 73.96" stroke="#000000" stroke-width="1" fill="none"></path></g><g transform="translate(685.6598364016418 70.34223081874478) rotate(0 -14.666337405827903 36.9841305656524)"><path d="M-25.74 42.71 C-27.43 51.7, -29.16 59.75, -27.23 74.86 M-27.28 43.35 C-27.76 50.8, -27.62 57.73, -28.15 74.25" stroke="#000000" stroke-width="1" fill="none"></path></g><g transform="translate(685.6598364016418 70.34223081874478) rotate(0 -14.666337405827903 36.9841305656524)"><path d="M-6.68 50.31 C-12.8 57.37, -18.99 63.64, -27.23 74.86 M-8.22 50.95 C-12.79 56.86, -16.74 62.16, -28.15 74.25" stroke="#000000" stroke-width="1" fill="none"></path></g></g><g stroke-linecap="round"><g transform="translate(590.700273146529 211.67047897074772) rotate(0 -15.18153613168505 35.92147477922268)"><path d="M-0.74 0.37 C-6 12.3, -25.6 60.31, -30.59 72.32 M1.07 -0.47 C-4.42 11.03, -26.01 58.71, -31.43 70.55" stroke="#000000" stroke-width="1" fill="none"></path></g><g transform="translate(590.700273146529 211.67047897074772) rotate(0 -15.18153613168505 35.92147477922268)"><path d="M-28.46 40.97 C-28.67 52.15, -29.36 63.04, -30.09 72.07 M-29.9 41.08 C-30.95 51.32, -30.27 63.04, -32.04 70.31" stroke="#000000" stroke-width="1" fill="none"></path></g><g transform="translate(590.700273146529 211.67047897074772) rotate(0 -15.18153613168505 35.92147477922268)"><path d="M-9.79 49.48 C-17.17 57.29, -24.97 64.95, -30.09 72.07 M-11.23 49.59 C-19.07 56.71, -25.22 65.32, -32.04 70.31" stroke="#000000" stroke-width="1" fill="none"></path></g></g><g stroke-linecap="round"><g transform="translate(481.149882166823 343.03151047846416) rotate(0 -26.256353906975903 25.080014053120976)"><path d="M-1.08 0.37 C-9.69 8.5, -43.65 41.21, -52.16 49.61 M0.56 -0.49 C-8.16 7.7, -44.16 41.88, -53.07 50.65" stroke="#000000" stroke-width="1" fill="none"></path></g><g transform="translate(481.149882166823 343.03151047846416) rotate(0 -26.256353906975903 25.080014053120976)"><path d="M-39.28 23.81 C-44.71 30.65, -46.25 38.96, -54.59 52.62 M-40.17 24.68 C-45.14 33.23, -49.24 43.2, -52.76 51.12" stroke="#000000" stroke-width="1" fill="none"></path></g><g transform="translate(481.149882166823 343.03151047846416) rotate(0 -26.256353906975903 25.080014053120976)"><path d="M-25.04 38.59 C-34.25 41.49, -39.46 45.98, -54.59 52.62 M-25.93 39.46 C-36.29 42.42, -45.74 46.83, -52.76 51.12" stroke="#000000" stroke-width="1" fill="none"></path></g></g><g stroke-linecap="round"><g transform="translate(348.6803360745674 467.8626463445031) rotate(0 -1.1284053396059335 30.24350957489395)"><path d="M0 -0.77 C-0.58 9.38, -1.84 49.81, -2.25 60.01 M-1.47 1.44 C-1.77 11.82, -0.24 51.23, -0.02 61.26" stroke="#000000" stroke-width="1" fill="none"></path></g><g transform="translate(348.6803360745674 467.8626463445031) rotate(0 -1.1284053396059335 30.24350957489395)"><path d="M-12.42 31.86 C-7.82 42.6, -2.76 55.27, -0.66 59.73 M-10.74 33.48 C-8.33 42.18, -2.79 51.91, 0.1 60.53" stroke="#000000" stroke-width="1" fill="none"></path></g><g transform="translate(348.6803360745674 467.8626463445031) rotate(0 -1.1284053396059335 30.24350957489395)"><path d="M8.09 31.24 C4.52 42.22, 1.4 55.14, -0.66 59.73 M9.77 32.86 C5 41.91, 3.36 51.86, 0.1 60.53" stroke="#000000" stroke-width="1" fill="none"></path></g></g><g transform="translate(303.59403184274333 691.4973335830687) rotate(0 40.511067708333286 16.681027879901933)"><text x="0" y="13.681027879901947" font-family="Cascadia, Segoe UI Emoji" font-size="13.719377059793787px" fill="#000000" text-anchor="start" style="white-space: pre;" direction="ltr">* name</text><text x="0" y="30.362055759803894" font-family="Cascadia, Segoe UI Emoji" font-size="13.719377059793787px" fill="#000000" text-anchor="start" style="white-space: pre;" direction="ltr">* car_make</text></g><g stroke-linecap="round"><g transform="translate(343.6850963313776 599.4317279480982) rotate(0 -1.8023155969263485 14.96017344344449)"><path d="M-0.22 -0.7 C-0.54 4.18, -1.9 24.33, -2.31 29.35 M-1.8 1.54 C-2.26 6.58, -3.04 25.79, -3.38 30.62" stroke="#000000" stroke-width="1" fill="none"></path></g><g transform="translate(343.6850963313776 599.4317279480982) rotate(0 -1.8023155969263485 14.96017344344449)"><path d="M-8.61 16.01 C-7.2 19.31, -5.94 25.34, -1.89 29.9 M-8.44 16.94 C-5.54 21.59, -4.05 26.25, -2.68 31" stroke="#000000" stroke-width="1" fill="none"></path></g><g transform="translate(343.6850963313776 599.4317279480982) rotate(0 -1.8023155969263485 14.96017344344449)"><path d="M1.62 16.57 C0.3 19.7, -1.16 25.58, -1.89 29.9 M1.79 17.5 C1.07 21.94, -1.04 26.4, -2.68 31" stroke="#000000" stroke-width="1" fill="none"></path></g></g></svg>