<svg version="1.1" xmlns="http://www.w3.org/2000/svg" viewBox="0 0 835.04296875 235.22577941045162" width="1670.0859375" height="470.45155882090324">
  <!-- svg-source:excalidraw -->
  
  <defs>
    <style>
      @font-face {
        font-family: "Virgil";
        src: url("https://excalidraw.com/Virgil.woff2");
      }
      @font-face {
        font-family: "Cascadia";
        src: url("https://excalidraw.com/Cascadia.woff2");
      }
    </style>
  </defs>
  <rect x="0" y="0" width="835.04296875" height="235.22577941045162" fill="#ffffff"></rect><g stroke-linecap="round" transform="translate(10 88.966254998371) rotate(0 72.5 28.306640625)"><path d="M-1.26 1.03 C31.16 -2.71, 59.31 0.74, 145.3 -0.65 M0.27 -0.3 C30.15 -1.39, 60.43 -0.3, 145.07 0.19 M144.81 1.11 C143.29 14.36, 146.96 29.76, 146.55 55.84 M145.04 -0.46 C145.9 11.05, 145.47 21.82, 145.24 56.98 M145.4 56.73 C101.71 58.02, 55.11 56.79, -0.91 57.06 M144.22 56.62 C109.83 55.2, 75.56 56.25, -0.74 56.47 M1.98 55.52 C-1.53 42.16, -2.17 24.74, -1.32 -0.45 M-0.81 57.08 C0.25 36.46, 0.32 18.82, -0.05 -0.19" stroke="#000000" stroke-width="1" fill="none"></path></g><g transform="translate(15 104.772895623371) rotate(0 67.5 12.5)"><text x="67.5" y="18" font-family="Virgil, Segoe UI Emoji" font-size="20px" fill="#000000" text-anchor="middle" style="white-space: pre;" direction="ltr">From</text></g><g stroke-linecap="round" transform="translate(252.203125 86.636176873371) rotate(0 72.5 28.306640625)"><path d="M-0.81 0.42 C47.91 0.56, 90.09 1.8, 145.15 -0.53 M-0.05 -0.56 C36.2 -0.54, 73.56 -0.79, 145.6 -0.64 M143.7 1.91 C143.86 11.51, 144.89 25.87, 143.95 56.14 M145.07 0.98 C144.83 17.77, 145.99 33.79, 144.45 56.79 M145.26 58.17 C106.69 59.24, 67.79 57.25, 1.64 56.78 M145.98 56.92 C105.23 56.48, 65.58 57.02, 0.96 56.56 M-0.3 55.15 C-1.19 38.99, 1.44 23.07, 0.55 0.6 M0.58 56.61 C0.61 43.05, -0.77 29.16, -0.04 0.83" stroke="#000000" stroke-width="1" fill="none"></path></g><g transform="translate(257.203125 102.442817498371) rotate(0 67.5 12.5)"><text x="67.5" y="18" font-family="Virgil, Segoe UI Emoji" font-size="20px" fill="#000000" text-anchor="middle" style="white-space: pre;" direction="ltr">Where</text></g><g stroke-linecap="round" transform="translate(465.96875 86.843208123371) rotate(0 72.5 28.306640625)"><path d="M-1.29 -1.69 C50.19 -0.84, 98.8 1.04, 143.82 -0.69 M-0.24 0.05 C42.73 1.26, 84.84 1.74, 144.63 0.48 M145.36 -0.73 C143.62 22.69, 144.82 44.54, 144.93 58.37 M145.08 -0.25 C144.05 14.58, 145.91 30.13, 145.1 56.96 M144.9 56.3 C96.63 56.62, 48.47 56.55, -1.26 55.07 M145.3 55.96 C92.25 56.26, 38.76 57.01, 0.99 56.31 M1.65 55.44 C1.03 42.29, 1.68 26.13, -0.98 0.77 M0.09 56.21 C0.1 35.26, 0.97 14.63, -0.07 0.35" stroke="#000000" stroke-width="1" fill="none"></path></g><g transform="translate(470.96875 102.649848748371) rotate(0 67.5 12.5)"><text x="67.5" y="18" font-family="Virgil, Segoe UI Emoji" font-size="20px" fill="#000000" text-anchor="middle" style="white-space: pre;" direction="ltr">Select</text></g><g stroke-linecap="round" transform="translate(680.04296875 85.843208123371) rotate(0 72.5 28.306640625)"><path d="M1.96 0.61 C40.06 1.17, 80.38 2.27, 146.92 -0.1 M-0.15 -0.73 C40.57 0.23, 83.07 0.32, 145.28 0.3 M146.15 -0.02 C147.35 12.66, 144.58 24.64, 144.91 58.26 M145.58 -0.49 C144.65 14.04, 145.81 27.21, 145.08 56.7 M146.82 55.81 C107.21 56.49, 68.61 55.18, 1.99 56.28 M145.19 57.51 C97.77 55.3, 50.39 56.32, -0.83 55.65 M0.03 55.21 C-2.34 35.54, 0.93 12.32, -1.61 -0.92 M-0.97 55.63 C0.31 37.32, 0.52 17.9, 0.89 -0.47" stroke="#000000" stroke-width="1" fill="none"></path></g><g transform="translate(685.04296875 101.649848748371) rotate(0 67.5 12.5)"><text x="67.5" y="18" font-family="Virgil, Segoe UI Emoji" font-size="20px" fill="#000000" text-anchor="middle" style="white-space: pre;" direction="ltr">Join</text></g><g stroke-linecap="round"><g transform="translate(72.94140625 147.173286248371) rotate(0 -0.6025540728401495 38.688311409903704)"><path d="M0.9 1.16 C0.62 13.79, -1.01 64.09, -1.21 76.66 M-0.09 0.72 C-0.56 12.92, -2.02 62.57, -2.1 74.87" stroke="#000000" stroke-width="1" fill="none"></path></g><g transform="translate(72.94140625 147.173286248371) rotate(0 -0.6025540728401495 38.688311409903704)"><path d="M-9.87 46.67 C-7.24 57.72, -4.09 64.48, -3.89 73.38 M-12.46 47.24 C-10.4 54.79, -6.56 61.25, -1.65 74.76" stroke="#000000" stroke-width="1" fill="none"></path></g><g transform="translate(72.94140625 147.173286248371) rotate(0 -0.6025540728401495 38.688311409903704)"><path d="M10.65 47.08 C6.31 58.14, 2.49 64.76, -3.89 73.38 M8.06 47.65 C4.72 55.19, 3.15 61.54, -1.65 74.76" stroke="#000000" stroke-width="1" fill="none"></path></g></g><g stroke-linecap="round"><g transform="translate(317.22265625 147.183051873371) rotate(0 -1.0379995559969757 37.97663962069899)"><path d="M-0.17 0.36 C-0.46 12.96, -0.73 63.94, -0.74 76.44 M-1.72 -0.49 C-2.21 11.66, -1.6 61.73, -1.37 74.54" stroke="#000000" stroke-width="1" fill="none"></path></g><g transform="translate(317.22265625 147.183051873371) rotate(0 -1.0379995559969757 37.97663962069899)"><path d="M-11.41 47.48 C-7.02 59.19, -4.64 67.61, 0.38 75.16 M-11.94 47.23 C-9.16 53.07, -6.55 58.11, -1.03 74.6" stroke="#000000" stroke-width="1" fill="none"></path></g><g transform="translate(317.22265625 147.183051873371) rotate(0 -1.0379995559969757 37.97663962069899)"><path d="M9.11 47.2 C5.61 58.99, 0.08 67.52, 0.38 75.16 M8.58 46.95 C6.78 53.03, 4.82 58.13, -1.03 74.6" stroke="#000000" stroke-width="1" fill="none"></path></g></g><g stroke-linecap="round"><g transform="translate(325.96484375 21.321723748371) rotate(0 -0.8840630519870274 32.299878983572135)"><path d="M-0.11 -0.77 C-0.19 10.05, -0.29 54.39, -0.33 65.37 M-1.63 1.44 C-1.8 11.89, -0.99 53.42, -0.82 63.7" stroke="#000000" stroke-width="1" fill="none"></path></g><g transform="translate(325.96484375 21.321723748371) rotate(0 -0.8840630519870274 32.299878983572135)"><path d="M-12.86 37.13 C-6.71 45.81, -3.81 53.77, -1.02 63.44 M-11.96 35.66 C-9.14 42.13, -7.89 48.92, -0.73 62.88" stroke="#000000" stroke-width="1" fill="none"></path></g><g transform="translate(325.96484375 21.321723748371) rotate(0 -0.8840630519870274 32.299878983572135)"><path d="M7.66 36.77 C7.46 45.55, 4.02 53.62, -1.02 63.44 M8.56 35.3 C6.8 41.65, 3.48 48.52, -0.73 62.88" stroke="#000000" stroke-width="1" fill="none"></path></g></g><g stroke-linecap="round"><g transform="translate(547.26953125 18.438911248371) rotate(0 -0.8546854659449536 35.04342024723999)"><path d="M-0.47 0.12 C-1.17 12.01, -2.84 59.24, -3.19 70.95 M1.48 -0.86 C1.08 10.68, -0.03 56.95, -0.85 69.04" stroke="#000000" stroke-width="1" fill="none"></path></g><g transform="translate(547.26953125 18.438911248371) rotate(0 -0.8546854659449536 35.04342024723999)"><path d="M-9.68 39.26 C-5.83 51.26, -3.27 63.66, -2.44 70.98 M-10.85 40.51 C-7.76 49.9, -4.44 59.55, -0.14 69.69" stroke="#000000" stroke-width="1" fill="none"></path></g><g transform="translate(547.26953125 18.438911248371) rotate(0 -0.8546854659449536 35.04342024723999)"><path d="M10.82 40.15 C6.81 51.73, 1.5 63.78, -2.44 70.98 M9.65 41.39 C6.16 50.45, 2.89 59.81, -0.14 69.69" stroke="#000000" stroke-width="1" fill="none"></path></g></g><g stroke-linecap="round"><g transform="translate(542.8671875 146.583442498371) rotate(0 -0.3050474453996799 39.39572125012985)"><path d="M0.84 0.78 C0.84 13.75, -0.15 65.83, -0.23 78.64 M-0.17 0.15 C-0.36 12.7, -1.42 63.79, -1.46 76.9" stroke="#000000" stroke-width="1" fill="none"></path></g><g transform="translate(542.8671875 146.583442498371) rotate(0 -0.3050474453996799 39.39572125012985)"><path d="M-10.05 47.71 C-7.16 56.6, -6.06 64.41, -0.37 77.41 M-12.22 49.49 C-7.66 56.23, -5.04 65.26, -2.2 76.29" stroke="#000000" stroke-width="1" fill="none"></path></g><g transform="translate(542.8671875 146.583442498371) rotate(0 -0.3050474453996799 39.39572125012985)"><path d="M10.47 47.97 C7.56 56.94, 2.87 64.67, -0.37 77.41 M8.3 49.75 C6.56 56.53, 2.87 65.48, -2.2 76.29" stroke="#000000" stroke-width="1" fill="none"></path></g></g><g stroke-linecap="round"><g transform="translate(705.36328125 17.290473748371) rotate(0 8.097591998893677 34.53268936733715)"><path d="M0.36 0.88 C2.69 12.46, 12.51 57.47, 14.92 68.77 M-0.91 0.29 C1.7 11.56, 14.11 55.16, 17.11 66.8" stroke="#000000" stroke-width="1" fill="none"></path></g><g transform="translate(705.36328125 17.290473748371) rotate(0 8.097591998893677 34.53268936733715)"><path d="M1.27 40.62 C6.69 49.64, 13.15 62.62, 18.03 68.56 M-0.52 41.36 C2.76 46.45, 7.52 52.74, 16.62 66.22" stroke="#000000" stroke-width="1" fill="none"></path></g><g transform="translate(705.36328125 17.290473748371) rotate(0 8.097591998893677 34.53268936733715)"><path d="M21.07 35.23 C18.95 46.36, 17.9 61.37, 18.03 68.56 M19.29 35.98 C18.52 42.04, 19.27 49.41, 16.62 66.22" stroke="#000000" stroke-width="1" fill="none"></path></g></g><g stroke-linecap="round"><g transform="translate(818.8125 11.048286248371) rotate(0 -10.283547888137377 34.60684484455736)"><path d="M-0.1 -1.05 C-3.53 10.41, -16.05 57.19, -19.41 69.18 M-1.6 1.02 C-5.32 12.56, -17.77 58.92, -20.47 70.26" stroke="#000000" stroke-width="1" fill="none"></path></g><g transform="translate(818.8125 11.048286248371) rotate(0 -10.283547888137377 34.60684484455736)"><path d="M-25.14 40.03 C-23.58 50.62, -19.5 62.42, -19.21 70.19 M-24.24 39.77 C-22.19 50.4, -20.42 60.53, -20.93 70.87" stroke="#000000" stroke-width="1" fill="none"></path></g><g transform="translate(818.8125 11.048286248371) rotate(0 -10.283547888137377 34.60684484455736)"><path d="M-5.27 45.14 C-11.65 53.67, -15.49 63.44, -19.21 70.19 M-4.36 44.87 C-9.06 53.71, -14.01 62.12, -20.93 70.87" stroke="#000000" stroke-width="1" fill="none"></path></g></g><g stroke-linecap="round"><g transform="translate(760.91015625 142.114692498371) rotate(0 0.7221375073958143 40.88666871990078)"><path d="M-0.17 -0.72 C0.31 12.72, 2.62 67.66, 3.17 81.57 M-1.72 1.51 C-1.41 14.97, 1.61 68.74, 2.3 82.49" stroke="#000000" stroke-width="1" fill="none"></path></g><g transform="translate(760.91015625 142.114692498371) rotate(0 0.7221375073958143 40.88666871990078)"><path d="M-10.64 55.12 C-7.39 63.89, -1.69 72.39, 3.91 82.38 M-8.86 55.36 C-5.94 62.54, -1.94 69.75, 3.24 82.07" stroke="#000000" stroke-width="1" fill="none"></path></g><g transform="translate(760.91015625 142.114692498371) rotate(0 0.7221375073958143 40.88666871990078)"><path d="M9.85 54.04 C6.52 63.13, 5.63 71.98, 3.91 82.38 M11.63 54.28 C9.09 61.94, 7.62 69.44, 3.24 82.07" stroke="#000000" stroke-width="1" fill="none"></path></g></g></svg>